<svg width="700" height="700" viewBox="0 0 700 700" fill="none" xmlns="http://www.w3.org/2000/svg">
<g filter="url(#filter0_d_5322_93)">
<rect x="150" y="150" width="400" height="400" rx="6" fill="url(#paint0_linear_5322_93)"/>
</g>
<g clip-path="url(#clip0_5322_93)">
<path d="M483.204 414.36C467.929 404.989 443.253 404.989 428.068 414.36C412.882 423.731 412.973 438.965 428.248 448.336C443.524 457.707 468.2 457.707 483.385 448.336C498.57 438.917 498.48 423.731 483.204 414.36ZM476.199 429.113C474.889 429.546 473.578 430.027 472.267 430.459C471.454 430.699 470.957 430.747 470.595 430.555C470.414 430.411 470.234 430.219 470.053 429.93C469.194 428.441 467.884 427.143 466.121 426.086C465.895 425.942 465.624 425.798 465.353 425.653C464.765 425.317 464.223 425.077 463.5 424.884C460.969 424.26 458.709 425.269 459.026 426.951C459.161 427.816 459.613 428.585 460.155 429.402C461.059 430.747 462.054 432.093 462.686 433.535C464.81 438.052 460.201 442.521 452.789 442.954C450.122 443.098 447.591 442.762 445.241 441.945C444.202 441.608 443.434 441.608 442.665 442.185C441.897 442.714 441.038 443.194 440.225 443.675C439.502 444.107 438.733 444.155 438.01 443.723C437.468 443.434 436.971 443.098 436.429 442.81C436.067 442.569 435.705 442.377 435.344 442.137C434.576 441.656 434.666 441.176 435.389 440.695C435.977 440.311 436.564 439.974 437.106 439.59C438.417 438.773 438.417 438.725 437.332 437.812C435.977 436.658 434.756 435.457 433.988 434.111C433.401 433.054 433.536 432.814 435.118 432.237C436.293 431.853 437.423 431.42 438.598 431.036C439.457 430.747 439.954 430.699 440.315 430.892C440.541 431.036 440.677 431.228 440.858 431.564C441.626 433.102 442.936 434.448 444.518 435.745C444.789 435.986 445.106 436.178 445.377 436.37C446.236 436.899 447.23 437.283 448.36 437.572C451.297 438.292 453.919 437.043 453.647 435.073C453.557 434.4 453.241 433.823 452.834 433.198C451.84 431.612 450.529 430.123 449.851 428.441C448.767 425.75 449.264 423.299 452.744 421.376C456.721 419.214 461.15 419.07 465.85 420.415C467.793 420.992 467.748 420.992 469.239 420.079C469.737 419.742 470.234 419.454 470.731 419.166C471.861 418.493 472.267 418.493 473.397 419.166C473.759 419.358 474.075 419.598 474.437 419.79C476.832 421.232 476.832 421.232 474.482 422.722C472.81 423.731 472.81 423.731 474.211 424.933C475.295 425.846 476.154 426.807 476.787 427.864C477.284 428.393 477.103 428.825 476.199 429.113ZM503.587 460.735C499.384 463.33 492.559 463.33 488.311 460.735C484.108 458.14 484.063 453.911 488.266 451.316C492.469 448.721 499.293 448.721 503.542 451.316C507.79 453.911 507.835 458.14 503.587 460.735ZM423.142 411.332C418.938 413.928 412.114 413.928 407.866 411.332C403.618 408.737 403.618 404.508 407.821 401.913C412.024 399.318 418.848 399.318 423.096 401.913C427.299 404.508 427.345 408.737 423.142 411.332ZM560.757 440.599L440.315 366.639C433.355 362.362 422.057 362.362 415.142 366.639L350.56 406.527C343.645 410.804 343.69 417.772 350.65 422.049L471.092 496.009C478.052 500.286 489.351 500.286 496.265 496.009L560.802 456.122C567.762 451.844 567.717 444.876 560.757 440.599ZM497.576 481.928C496.808 481.159 495.904 480.438 494.819 479.766C487.769 475.44 476.335 475.44 469.33 479.766C468.787 480.102 468.336 480.438 467.838 480.823L374.332 423.395C375.236 423.01 376.095 422.578 376.908 422.097C383.913 417.772 383.868 410.756 376.818 406.431C376.049 405.95 375.236 405.518 374.377 405.181L412.928 381.345C413.515 381.874 414.193 382.354 414.961 382.835C422.012 387.16 433.446 387.16 440.451 382.835C441.264 382.354 441.942 381.825 442.575 381.249L536.398 438.821C535.132 439.302 534.002 439.83 532.918 440.503C525.913 444.828 525.913 451.892 533.008 456.218C534.093 456.89 535.313 457.419 536.578 457.9L497.576 481.928ZM347.487 436.851C350.56 435.169 355.305 435.409 358.243 437.235L484.153 514.511L552.216 472.413C555.153 470.587 559.989 470.587 562.972 472.413C565.955 474.239 565.955 477.219 563.017 479.045L490.661 523.738C487.136 525.948 481.351 525.948 477.781 523.738L475.25 522.2L473.488 521.095L347.261 443.627C344.188 441.752 344.233 438.629 347.487 436.851ZM563.107 503.217L490.752 547.91C487.227 550.121 481.442 550.121 477.871 547.91L475.386 546.372L473.578 545.267L347.351 467.799C344.278 465.925 344.368 462.801 347.622 461.023C350.65 459.341 355.441 459.582 358.379 461.408L484.244 538.683L552.306 496.634C555.289 494.807 560.079 494.807 563.062 496.634C566.045 498.412 566.09 501.391 563.107 503.217Z" fill="url(#paint1_linear_5322_93)"/>
</g>
<defs>
<filter id="filter0_d_5322_93" x="0" y="0" width="700" height="700" filterUnits="userSpaceOnUse" color-interpolation-filters="sRGB">
<feFlood flood-opacity="0" result="BackgroundImageFix"/>
<feColorMatrix in="SourceAlpha" type="matrix" values="0 0 0 0 0 0 0 0 0 0 0 0 0 0 0 0 0 0 127 0" result="hardAlpha"/>
<feOffset/>
<feGaussianBlur stdDeviation="75"/>
<feComposite in2="hardAlpha" operator="out"/>
<feColorMatrix type="matrix" values="0 0 0 0 0.231373 0 0 0 0 0.372549 0 0 0 0 0.588235 0 0 0 0.35 0"/>
<feBlend mode="normal" in2="BackgroundImageFix" result="effect1_dropShadow_5322_93"/>
<feBlend mode="normal" in="SourceGraphic" in2="effect1_dropShadow_5322_93" result="shape"/>
</filter>
<linearGradient id="paint0_linear_5322_93" x1="194.364" y1="186.697" x2="501.61" y2="547.234" gradientUnits="userSpaceOnUse">
<stop stop-color="#527791"/>
<stop offset="0.519792" stop-color="#325597"/>
<stop offset="0.927909" stop-color="#193895"/>
</linearGradient>
<linearGradient id="paint1_linear_5322_93" x1="364" y1="406" x2="528" y2="536" gradientUnits="userSpaceOnUse">
<stop stop-color="#5577CD"/>
<stop offset="1" stop-color="#5577CD"/>
</linearGradient>
<clipPath id="clip0_5322_93">
<rect width="211" height="211" fill="white" transform="translate(339 339)"/>
</clipPath>
</defs>
</svg>
