<svg width="560" height="560" viewBox="0 0 560 560" fill="none" xmlns="http://www.w3.org/2000/svg">
<g filter="url(#filter0_d_493_428)">
<rect x="80" y="80" width="400" height="400" rx="6" fill="url(#paint0_linear_493_428)"/>
<rect x="80.5" y="80.5" width="399" height="399" rx="5.5" stroke="url(#paint1_linear_493_428)" stroke-opacity="0.2"/>
</g>
<g clip-path="url(#clip0_493_428)">
<path fill-rule="evenodd" clip-rule="evenodd" d="M468.329 366.432C468.329 323.97 434.706 291 393.373 291C352.04 291 318.416 323.97 318.416 364.5C305.963 370.769 297 382.308 297 396V417C297 425.354 300.385 433.366 306.409 439.274C312.434 445.181 320.604 448.5 329.124 448.5H339.832C342.672 448.5 345.396 447.394 347.404 445.425C349.412 443.455 350.54 440.785 350.54 438V375C350.54 372.215 349.412 369.545 347.404 367.575C345.396 365.606 342.672 364.5 339.832 364.5C339.832 350.576 345.473 337.223 355.514 327.377C365.555 317.531 379.173 312 393.373 312C407.573 312 421.191 317.531 431.232 327.377C441.272 337.223 446.913 350.576 446.913 364.5C444.073 364.5 441.35 365.606 439.342 367.575C437.333 369.545 436.205 372.215 436.205 375V438C436.205 440.785 437.333 443.455 439.342 445.425C441.35 447.394 444.073 448.5 446.913 448.5V459H419.158C416.952 452.9 411.063 448.5 404.081 448.5H382.665C378.405 448.5 374.319 450.159 371.307 453.113C368.295 456.067 366.603 460.073 366.603 464.25C366.603 468.427 368.295 472.433 371.307 475.387C374.319 478.341 378.405 480 382.665 480H446.913C452.593 480 458.04 477.788 462.057 473.849C466.073 469.911 468.329 464.57 468.329 459V446.579C474.58 444.425 479.996 440.424 483.831 435.126C487.667 429.829 489.733 423.496 489.746 417V396C489.734 389.505 487.668 383.173 483.832 377.877C479.996 372.581 474.58 368.583 468.329 366.432L222.043 942L468.329 366.432Z" fill="url(#paint2_linear_493_428)"/>
</g>
<defs>
<filter id="filter0_d_493_428" x="0" y="0" width="560" height="560" filterUnits="userSpaceOnUse" color-interpolation-filters="sRGB">
<feFlood flood-opacity="0" result="BackgroundImageFix"/>
<feColorMatrix in="SourceAlpha" type="matrix" values="0 0 0 0 0 0 0 0 0 0 0 0 0 0 0 0 0 0 127 0" result="hardAlpha"/>
<feOffset/>
<feGaussianBlur stdDeviation="40"/>
<feComposite in2="hardAlpha" operator="out"/>
<feColorMatrix type="matrix" values="0 0 0 0 0.172549 0 0 0 0 0.172549 0 0 0 0 0.176471 0 0 0 0.35 0"/>
<feBlend mode="normal" in2="BackgroundImageFix" result="effect1_dropShadow_493_428"/>
<feBlend mode="normal" in="SourceGraphic" in2="effect1_dropShadow_493_428" result="shape"/>
</filter>
<linearGradient id="paint0_linear_493_428" x1="124.364" y1="116.697" x2="431.61" y2="477.234" gradientUnits="userSpaceOnUse">
<stop stop-color="#303134"/>
<stop offset="0.519792" stop-color="#282828"/>
<stop offset="0.927909" stop-color="#282828"/>
</linearGradient>
<linearGradient id="paint1_linear_493_428" x1="88" y1="87" x2="462" y2="486" gradientUnits="userSpaceOnUse">
<stop stop-color="white"/>
<stop offset="1" stop-color="white" stop-opacity="0"/>
</linearGradient>
<linearGradient id="paint2_linear_493_428" x1="331.651" y1="331.576" x2="450.844" y2="484.825" gradientUnits="userSpaceOnUse">
<stop stop-color="#3C3C3C"/>
<stop offset="1" stop-color="#262626"/>
</linearGradient>
<clipPath id="clip0_493_428">
<rect width="183" height="189" fill="white" transform="translate(297 291)"/>
</clipPath>
</defs>
</svg>
