<svg width="560" height="560" viewBox="0 0 560 560" fill="none" xmlns="http://www.w3.org/2000/svg">
<g filter="url(#filter0_d_493_414)">
<rect x="80" y="80" width="400" height="400" rx="6" fill="url(#paint0_linear_493_414)"/>
<rect x="80.5" y="80.5" width="399" height="399" rx="5.5" stroke="url(#paint1_linear_493_414)" stroke-opacity="0.2"/>
</g>
<g clip-path="url(#clip0_493_414)">
<path d="M384.5 291C363.832 291 343.628 297.217 326.443 308.864C309.258 320.512 295.864 337.067 287.955 356.436C280.045 375.805 277.976 397.118 282.008 417.68C286.04 438.242 295.993 457.129 310.607 471.953C325.222 486.778 343.842 496.873 364.113 500.963C384.384 505.053 405.396 502.954 424.49 494.931C443.585 486.908 459.906 473.322 471.389 455.89C482.871 438.459 489 417.965 489 397C489 368.887 477.99 341.926 458.393 322.047C438.795 302.168 412.215 291 384.5 291ZM384.5 476.5C368.999 476.5 353.846 471.837 340.957 463.102C328.069 454.366 318.023 441.95 312.091 427.423C306.159 412.897 304.607 396.912 307.631 381.49C310.655 366.069 318.12 351.903 329.081 340.785C340.041 329.667 354.007 322.095 369.21 319.028C384.413 315.96 400.172 317.534 414.493 323.552C428.814 329.569 441.055 339.758 449.666 352.832C458.278 365.906 462.875 381.276 462.875 397C462.853 418.078 454.588 438.286 439.895 453.19C425.201 468.094 405.279 476.477 384.5 476.5Z" fill="url(#paint2_linear_493_414)"/>
<path d="M410.756 397H391.031C389.299 397 387.638 396.302 386.413 395.06C385.188 393.817 384.5 392.132 384.5 390.375V370.367C384.501 368.645 384.167 366.939 383.517 365.347C382.868 363.755 381.915 362.308 380.714 361.09C379.513 359.872 378.087 358.906 376.518 358.247C374.949 357.588 373.267 357.249 371.568 357.25H371.307C369.608 357.249 367.926 357.588 366.357 358.247C364.788 358.906 363.362 359.872 362.161 361.09C360.96 362.308 360.007 363.755 359.358 365.347C358.708 366.939 358.374 368.645 358.375 370.367V410.383C358.374 412.105 358.708 413.811 359.358 415.403C360.007 416.995 360.96 418.442 362.161 419.66C363.362 420.878 364.788 421.844 366.357 422.503C367.926 423.162 369.608 423.501 371.307 423.5H410.756C412.454 423.501 414.136 423.162 415.705 422.503C417.275 421.844 418.701 420.878 419.902 419.66C421.103 418.442 422.055 416.995 422.705 415.403C423.354 413.811 423.688 412.105 423.688 410.383V410.118C423.688 408.395 423.354 406.689 422.705 405.097C422.055 403.505 421.103 402.058 419.902 400.84C418.701 399.622 417.275 398.656 415.705 397.997C414.136 397.338 412.454 396.999 410.756 397Z" fill="url(#paint3_linear_493_414)"/>
</g>
<defs>
<filter id="filter0_d_493_414" x="0" y="0" width="560" height="560" filterUnits="userSpaceOnUse" color-interpolation-filters="sRGB">
<feFlood flood-opacity="0" result="BackgroundImageFix"/>
<feColorMatrix in="SourceAlpha" type="matrix" values="0 0 0 0 0 0 0 0 0 0 0 0 0 0 0 0 0 0 127 0" result="hardAlpha"/>
<feOffset/>
<feGaussianBlur stdDeviation="40"/>
<feComposite in2="hardAlpha" operator="out"/>
<feColorMatrix type="matrix" values="0 0 0 0 0.172549 0 0 0 0 0.172549 0 0 0 0 0.176471 0 0 0 0.35 0"/>
<feBlend mode="normal" in2="BackgroundImageFix" result="effect1_dropShadow_493_414"/>
<feBlend mode="normal" in="SourceGraphic" in2="effect1_dropShadow_493_414" result="shape"/>
</filter>
<linearGradient id="paint0_linear_493_414" x1="124.364" y1="116.697" x2="431.61" y2="477.234" gradientUnits="userSpaceOnUse">
<stop stop-color="#303134"/>
<stop offset="0.519792" stop-color="#282828"/>
<stop offset="0.927909" stop-color="#282828"/>
</linearGradient>
<linearGradient id="paint1_linear_493_414" x1="85" y1="87" x2="480" y2="480" gradientUnits="userSpaceOnUse">
<stop stop-color="white"/>
<stop offset="1" stop-color="white" stop-opacity="0"/>
</linearGradient>
<linearGradient id="paint2_linear_493_414" x1="318" y1="320" x2="458" y2="466" gradientUnits="userSpaceOnUse">
<stop stop-color="#414141"/>
<stop offset="0.728332" stop-color="#262626"/>
</linearGradient>
<linearGradient id="paint3_linear_493_414" x1="358" y1="357" x2="417" y2="430" gradientUnits="userSpaceOnUse">
<stop stop-color="#404040"/>
<stop offset="1" stop-color="#282828"/>
</linearGradient>
<clipPath id="clip0_493_414">
<rect width="200" height="189" fill="white" transform="translate(280 291)"/>
</clipPath>
</defs>
</svg>
